<mxfile host="Electron" agent="Mozilla/5.0 (Windows NT 10.0; Win64; x64) AppleWebKit/537.36 (KHTML, like Gecko) draw.io/24.7.8 Chrome/128.0.6613.36 Electron/32.0.1 Safari/537.36" version="24.7.8">
  <diagram id="e3q73qmI6FWCRJhKJi0n" name="Page-1">
    <mxGraphModel dx="2074" dy="1196" grid="1" gridSize="10" guides="1" tooltips="1" connect="1" arrows="1" fold="1" page="1" pageScale="1" pageWidth="850" pageHeight="1100" math="0" shadow="0">
      <root>
        <UserObject label="" animation="# show everything&#xa;show VQUGQQ_OnS2NU-rycE4X-38 fade&#xa;show VQUGQQ_OnS2NU-rycE4X-29 fade&#xa;show VQUGQQ_OnS2NU-rycE4X-78 fade&#xa;show VQUGQQ_OnS2NU-rycE4X-23 fade&#xa;show VQUGQQ_OnS2NU-rycE4X-18 fade&#xa;show VQUGQQ_OnS2NU-rycE4X-32 fade&#xa;show VQUGQQ_OnS2NU-rycE4X-6 fade&#xa;show VQUGQQ_OnS2NU-rycE4X-35 fade&#xa;show VQUGQQ_OnS2NU-rycE4X-34 fade&#xa;show VQUGQQ_OnS2NU-rycE4X-36 fade&#xa;show VQUGQQ_OnS2NU-rycE4X-37 fade&#xa;show IBNPmSZJS5FAOytZOC4L-5 fade&#xa;&#xa;show wN3jGvzEee-aj5tuvHeW-2 fade&#xa;show wN3jGvzEee-aj5tuvHeW-1 fade&#xa;show VQUGQQ_OnS2NU-rycE4X-10 fade&#xa;show VQUGQQ_OnS2NU-rycE4X-20 fade&#xa;show VQUGQQ_OnS2NU-rycE4X-39 fade&#xa;show VQUGQQ_OnS2NU-rycE4X-8 fade&#xa;show VQUGQQ_OnS2NU-rycE4X-53 fade&#xa;show wN3jGvzEee-aj5tuvHeW-4 fade&#xa;show wN3jGvzEee-aj5tuvHeW-3 fade&#xa;wait 1000&#xa;&#xa;# Wiretap deployed, show handshake&#xa;show wN3jGvzEee-aj5tuvHeW-5 fade&#xa;show wN3jGvzEee-aj5tuvHeW-6 fade&#xa;show FmDstwN8osCTSLxOBSY--1 fade&#xa;show FmDstwN8osCTSLxOBSY--7 fade&#xa;show FmDstwN8osCTSLxOBSY--10 fade&#xa;show FmDstwN8osCTSLxOBSY--2 fade&#xa;flow wN3jGvzEee-aj5tuvHeW-6 start&#xa;flow FmDstwN8osCTSLxOBSY--1 start&#xa;flow FmDstwN8osCTSLxOBSY--7 start&#xa;flow FmDstwN8osCTSLxOBSY--10 start&#xa;flow FmDstwN8osCTSLxOBSY--2 start&#xa;wait 2000&#xa;show FmDstwN8osCTSLxOBSY--9 fade&#xa;show oPV8zDyL8UI4lHpnsqUg-2 fade&#xa;show oPV8zDyL8UI4lHpnsqUg-3 fade&#xa;show oPV8zDyL8UI4lHpnsqUg-4 fade&#xa;show oPV8zDyL8UI4lHpnsqUg-5 fade&#xa;flow FmDstwN8osCTSLxOBSY--9 start&#xa;flow oPV8zDyL8UI4lHpnsqUg-2 start&#xa;flow oPV8zDyL8UI4lHpnsqUg-3 start&#xa;flow oPV8zDyL8UI4lHpnsqUg-4 start&#xa;wait 2000&#xa;&#xa;# show ping&#xa;show oPV8zDyL8UI4lHpnsqUg-7 fade&#xa;wait 1000&#xa;&#xa;show VQUGQQ_OnS2NU-rycE4X-77 fade&#xa;wait 1000&#xa;&#xa;&#xa;show oPV8zDyL8UI4lHpnsqUg-10 fade&#xa;show oPV8zDyL8UI4lHpnsqUg-12 fade&#xa;wait 1000&#xa;&#xa;show oPV8zDyL8UI4lHpnsqUg-15 fade&#xa;show oPV8zDyL8UI4lHpnsqUg-16 fade&#xa;wait 1000&#xa;&#xa;show oPV8zDyL8UI4lHpnsqUg-8 fade&#xa;wait 5000&#xa;" id="0">
          <mxCell />
        </UserObject>
        <mxCell id="1" parent="0" />
        <mxCell id="2" value="" style="endArrow=classicThin;html=1;rounded=1;fontFamily=Courier New;jumpSize=12;strokeWidth=3;endFill=1;strokeColor=#EA6B66;startArrow=none;startFill=0;edgeStyle=isometricEdgeStyle;dashed=1;entryX=0.898;entryY=0.81;entryDx=0;entryDy=0;entryPerimeter=0;flowAnimation=1;" parent="1" target="VQUGQQ_OnS2NU-rycE4X-8" edge="1">
          <mxGeometry width="50" height="50" relative="1" as="geometry">
            <mxPoint x="734.96" y="308" as="sourcePoint" />
            <mxPoint x="660" y="270" as="targetPoint" />
            <Array as="points">
              <mxPoint x="678" y="281" />
            </Array>
          </mxGeometry>
        </mxCell>
        <mxCell id="IBNPmSZJS5FAOytZOC4L-5" value="" style="endArrow=none;dashed=1;html=1;rounded=1;strokeColor=#7EA6E0;strokeWidth=5;jumpStyle=none;edgeStyle=isometricEdgeStyle;" parent="1" edge="1">
          <mxGeometry width="50" height="50" relative="1" as="geometry">
            <mxPoint x="645" y="147" as="sourcePoint" />
            <mxPoint x="941" y="312" as="targetPoint" />
            <Array as="points">
              <mxPoint x="479.26" y="378" />
            </Array>
          </mxGeometry>
        </mxCell>
        <mxCell id="dTdVm22ynEOEwNfV1y40-15" value="" style="group" parent="1" vertex="1" connectable="0">
          <mxGeometry x="520" y="189.61" width="87.18999999999994" height="45.59000000000003" as="geometry" />
        </mxCell>
        <mxCell id="dTdVm22ynEOEwNfV1y40-16" value="&lt;br&gt;&lt;div&gt;&lt;i&gt;&lt;/i&gt;&lt;/div&gt;" style="text;html=1;strokeColor=#314354;fillColor=#647687;align=left;verticalAlign=middle;whiteSpace=wrap;rounded=1;fontFamily=Courier New;fontStyle=1;fontColor=#ffffff;" parent="dTdVm22ynEOEwNfV1y40-15" vertex="1">
          <mxGeometry y="1.490000000000009" width="87.19" height="44.1" as="geometry" />
        </mxCell>
        <mxCell id="dTdVm22ynEOEwNfV1y40-17" value="Server" style="text;html=1;align=center;verticalAlign=middle;whiteSpace=wrap;rounded=0;fontFamily=Courier New;fontStyle=1;fontColor=#FFFFFF;" parent="dTdVm22ynEOEwNfV1y40-15" vertex="1">
          <mxGeometry x="13.590000000000146" width="60" height="30" as="geometry" />
        </mxCell>
        <mxCell id="dTdVm22ynEOEwNfV1y40-18" value="10.0.0.2" style="text;html=1;align=center;verticalAlign=middle;whiteSpace=wrap;rounded=0;fontFamily=Courier New;fontStyle=1;fontColor=#FFFFFF;" parent="dTdVm22ynEOEwNfV1y40-15" vertex="1">
          <mxGeometry x="13.590000000000146" y="15.589999999999975" width="60" height="30" as="geometry" />
        </mxCell>
        <mxCell id="VQUGQQ_OnS2NU-rycE4X-8" value="" style="verticalLabelPosition=bottom;html=1;verticalAlign=top;strokeWidth=1;align=center;outlineConnect=0;dashed=0;outlineConnect=0;shape=mxgraph.aws3d.application2;fillColor=#7EA6E0;strokeColor=#A9C4EB;aspect=fixed;" parent="1" vertex="1">
          <mxGeometry x="590" y="220" width="62" height="53" as="geometry" />
        </mxCell>
        <mxCell id="VQUGQQ_OnS2NU-rycE4X-10" value="" style="verticalLabelPosition=bottom;html=1;verticalAlign=top;strokeWidth=1;align=center;outlineConnect=0;dashed=0;outlineConnect=0;shape=mxgraph.aws3d.application2;fillColor=#B266FF;strokeColor=#CC99FF;aspect=fixed;" parent="1" vertex="1">
          <mxGeometry x="720" y="295.8" width="62" height="53" as="geometry" />
        </mxCell>
        <mxCell id="VQUGQQ_OnS2NU-rycE4X-20" value="" style="verticalLabelPosition=bottom;html=1;verticalAlign=top;strokeWidth=1;align=center;outlineConnect=0;dashed=0;outlineConnect=0;shape=mxgraph.aws3d.client;aspect=fixed;strokeColor=none;fillColor=#777777;" parent="1" vertex="1">
          <mxGeometry x="754.9999999999999" y="255" width="30.57" height="53" as="geometry" />
        </mxCell>
        <mxCell id="VQUGQQ_OnS2NU-rycE4X-29" value="" style="verticalLabelPosition=bottom;html=1;verticalAlign=top;strokeWidth=1;align=center;outlineConnect=0;dashed=0;outlineConnect=0;shape=mxgraph.aws3d.dataCenter;strokeColor=#5E5E5E;aspect=fixed;fillColor=#FF6666;gradientColor=none;" parent="1" vertex="1">
          <mxGeometry x="316.84000000000003" y="515.5" width="71.03" height="82" as="geometry" />
        </mxCell>
        <mxCell id="VQUGQQ_OnS2NU-rycE4X-23" value="" style="verticalLabelPosition=bottom;html=1;verticalAlign=top;strokeWidth=1;align=center;outlineConnect=0;dashed=0;outlineConnect=0;shape=mxgraph.aws3d.end_user;strokeColor=none;fillColor=#777777;aspect=fixed;" parent="1" vertex="1">
          <mxGeometry x="358.38000000000005" y="469.99999999999994" width="29.49" height="60.46" as="geometry" />
        </mxCell>
        <mxCell id="VQUGQQ_OnS2NU-rycE4X-38" value="" style="sketch=0;pointerEvents=1;shadow=0;dashed=0;html=1;strokeColor=none;fillColor=#DF8C42;labelPosition=center;verticalLabelPosition=bottom;verticalAlign=top;align=center;outlineConnect=0;shape=mxgraph.veeam2.wireguard;fontFamily=Courier New;fontSize=19;" parent="1" vertex="1">
          <mxGeometry x="295.85999999999996" y="567.96" width="26.5" height="26.5" as="geometry" />
        </mxCell>
        <mxCell id="VQUGQQ_OnS2NU-rycE4X-39" value="" style="sketch=0;pointerEvents=1;shadow=0;dashed=0;html=1;strokeColor=none;fillColor=#DF8C42;labelPosition=center;verticalLabelPosition=bottom;verticalAlign=top;align=center;outlineConnect=0;shape=mxgraph.veeam2.wireguard;fontFamily=Courier New;fontSize=19;" parent="1" vertex="1">
          <mxGeometry x="590" y="255.49" width="24.96" height="24" as="geometry" />
        </mxCell>
        <mxCell id="VQUGQQ_OnS2NU-rycE4X-53" value="" style="verticalLabelPosition=bottom;html=1;verticalAlign=top;strokeWidth=1;align=center;outlineConnect=0;dashed=0;outlineConnect=0;shape=mxgraph.aws3d.client;aspect=fixed;strokeColor=none;fillColor=#777777;" parent="1" vertex="1">
          <mxGeometry x="625" y="179" width="30.57" height="53" as="geometry" />
        </mxCell>
        <mxCell id="VQUGQQ_OnS2NU-rycE4X-77" value="&lt;i&gt;&amp;nbsp; client$ &lt;/i&gt;./wiretap add server&lt;br&gt;&amp;nbsp; &amp;nbsp; &amp;nbsp; &amp;nbsp; --server-address ::2&lt;br&gt;&lt;span style=&quot;white-space: pre;&quot;&gt;&#x9;&lt;/span&gt;--endpoint 10.0.0.2:51820&lt;br&gt;&lt;span style=&quot;white-space: pre;&quot;&gt;&#x9;&lt;/span&gt;--routes 10.0.1.0/24&lt;br&gt;&lt;div&gt;&lt;i&gt;&lt;/i&gt;&lt;/div&gt;" style="text;html=1;strokeColor=#314354;fillColor=#647687;align=left;verticalAlign=middle;whiteSpace=wrap;rounded=1;fontFamily=Courier New;fontStyle=1;fontColor=#ffffff;" parent="1" vertex="1">
          <mxGeometry x="160" y="167.88" width="255" height="75.25" as="geometry" />
        </mxCell>
        <mxCell id="FmDstwN8osCTSLxOBSY--2" value="" style="endArrow=classicThin;html=1;rounded=1;fontFamily=Courier New;jumpSize=12;strokeWidth=3;endFill=1;strokeColor=#EA6B66;edgeStyle=isometricEdgeStyle;startArrow=none;startFill=0;dashed=1;flowAnimation=1;" parent="1" edge="1">
          <mxGeometry width="50" height="50" relative="1" as="geometry">
            <mxPoint x="586" y="271" as="sourcePoint" />
            <mxPoint x="296" y="596" as="targetPoint" />
            <Array as="points">
              <mxPoint x="159" y="600" />
            </Array>
          </mxGeometry>
        </mxCell>
        <mxCell id="FmDstwN8osCTSLxOBSY--9" value="" style="endArrow=classicThin;html=1;rounded=1;fontFamily=Courier New;jumpSize=12;strokeWidth=3;endFill=1;strokeColor=#EA6B66;startArrow=none;startFill=0;edgeStyle=isometricEdgeStyle;dashed=1;flowAnimation=1;" parent="1" edge="1">
          <mxGeometry width="50" height="50" relative="1" as="geometry">
            <mxPoint x="292" y="588" as="sourcePoint" />
            <mxPoint x="586" y="280" as="targetPoint" />
            <Array as="points">
              <mxPoint x="164" y="594" />
            </Array>
          </mxGeometry>
        </mxCell>
        <mxCell id="VQUGQQ_OnS2NU-rycE4X-18" value="" style="verticalLabelPosition=bottom;html=1;verticalAlign=top;strokeWidth=1;align=center;outlineConnect=0;dashed=0;outlineConnect=0;shape=mxgraph.aws3d.cloudfront;fillColor=#ECECEC;strokeColor=#5E5E5E;aspect=fixed;" parent="1" vertex="1">
          <mxGeometry x="185" y="336" width="103.8" height="169.79999999999998" as="geometry" />
        </mxCell>
        <mxCell id="VQUGQQ_OnS2NU-rycE4X-6" value="" style="verticalLabelPosition=bottom;html=1;verticalAlign=top;strokeWidth=1;align=center;outlineConnect=0;dashed=0;outlineConnect=0;shape=mxgraph.aws3d.customerGateway;fillColor=#ECECEC;strokeColor=#5E5E5E;aspect=fixed;" parent="1" vertex="1">
          <mxGeometry x="384" y="289" width="118.06" height="104" as="geometry" />
        </mxCell>
        <mxCell id="zmwg3pBIKIv0O4HrFYE8-3" value="--server-address ::2&lt;br&gt;&lt;span style=&quot;font-weight: 400;&quot;&gt;API address of target existing Server; used to configure the new connection&lt;/span&gt;" style="text;html=1;strokeColor=#82b366;fillColor=#d5e8d4;align=center;verticalAlign=middle;whiteSpace=wrap;rounded=0;fontFamily=Courier New;fontStyle=1" parent="1" vertex="1">
          <mxGeometry x="668.68" y="130" width="211.32" height="76.2" as="geometry" />
        </mxCell>
        <mxCell id="zmwg3pBIKIv0O4HrFYE8-5" value="--routes 10.0.1.0/24&lt;br&gt;&lt;span style=&quot;font-weight: normal;&quot;&gt;configures the Client machine to route traffic destined for this subnet through the new Server&lt;/span&gt;" style="text;html=1;strokeColor=#82b366;fillColor=#d5e8d4;align=center;verticalAlign=middle;whiteSpace=wrap;rounded=0;fontFamily=Courier New;fontStyle=1" parent="1" vertex="1">
          <mxGeometry x="416.19" y="505.8" width="191" height="94.2" as="geometry" />
        </mxCell>
        <mxCell id="dTdVm22ynEOEwNfV1y40-5" value="&lt;br&gt;&lt;div&gt;&lt;i&gt;&lt;/i&gt;&lt;/div&gt;" style="text;html=1;strokeColor=#314354;fillColor=#647687;align=left;verticalAlign=middle;whiteSpace=wrap;rounded=1;fontFamily=Courier New;fontStyle=1;fontColor=#ffffff;" parent="1" vertex="1">
          <mxGeometry x="592.87" y="359" width="117.13" height="64.4" as="geometry" />
        </mxCell>
        <mxCell id="VQUGQQ_OnS2NU-rycE4X-37" value="&lt;div style=&quot;font-size: 17px;&quot;&gt;Internal Network&lt;/div&gt;" style="text;html=1;strokeColor=none;fillColor=none;align=center;verticalAlign=middle;whiteSpace=wrap;rounded=0;fontFamily=Courier New;fontStyle=1;fontSize=17;fontColor=#FFFFFF;" parent="1" vertex="1">
          <mxGeometry x="621.43" y="376.2" width="60" height="30" as="geometry" />
        </mxCell>
        <mxCell id="dTdVm22ynEOEwNfV1y40-11" value="" style="group" parent="1" vertex="1" connectable="0">
          <mxGeometry x="768.41" y="313.40999999999997" width="94" height="45.59000000000003" as="geometry" />
        </mxCell>
        <mxCell id="dTdVm22ynEOEwNfV1y40-3" value="&lt;br&gt;&lt;div&gt;&lt;i&gt;&lt;/i&gt;&lt;/div&gt;" style="text;html=1;strokeColor=#314354;fillColor=#647687;align=left;verticalAlign=middle;whiteSpace=wrap;rounded=1;fontFamily=Courier New;fontStyle=1;fontColor=#ffffff;" parent="dTdVm22ynEOEwNfV1y40-11" vertex="1">
          <mxGeometry y="1.490000000000009" width="87.19" height="44.1" as="geometry" />
        </mxCell>
        <mxCell id="wN3jGvzEee-aj5tuvHeW-1" value="New Server" style="text;html=1;align=center;verticalAlign=middle;whiteSpace=wrap;rounded=0;fontFamily=Courier New;fontStyle=1;fontColor=#FFFFFF;" parent="dTdVm22ynEOEwNfV1y40-11" vertex="1">
          <mxGeometry x="6.78" y="1.49" width="80.41" height="30" as="geometry" />
        </mxCell>
        <mxCell id="wN3jGvzEee-aj5tuvHeW-2" value="10.0.0.3" style="text;html=1;align=center;verticalAlign=middle;whiteSpace=wrap;rounded=0;fontFamily=Courier New;fontStyle=1;fontColor=#FFFFFF;" parent="dTdVm22ynEOEwNfV1y40-11" vertex="1">
          <mxGeometry x="13.590000000000146" y="15.589999999999975" width="60" height="30" as="geometry" />
        </mxCell>
        <mxCell id="dTdVm22ynEOEwNfV1y40-28" value="" style="group;rotation=30;" parent="1" vertex="1" connectable="0">
          <mxGeometry x="107.51" y="567.96" width="130" height="32.89999999999998" as="geometry" />
        </mxCell>
        <mxCell id="dTdVm22ynEOEwNfV1y40-24" value="&lt;br&gt;&lt;div&gt;&lt;i&gt;&lt;/i&gt;&lt;/div&gt;" style="text;html=1;strokeColor=#314354;fillColor=#647687;align=left;verticalAlign=middle;whiteSpace=wrap;rounded=1;fontFamily=Courier New;fontStyle=1;fontColor=#ffffff;rotation=30;" parent="dTdVm22ynEOEwNfV1y40-28" vertex="1">
          <mxGeometry x="10" y="11" width="110" height="11.63" as="geometry" />
        </mxCell>
        <mxCell id="dTdVm22ynEOEwNfV1y40-26" value="&lt;font style=&quot;font-size: 10px;&quot;&gt;WireGuard Tunnel&lt;/font&gt;" style="text;html=1;align=center;verticalAlign=middle;whiteSpace=wrap;rounded=0;fontFamily=Courier New;fontStyle=1;fontColor=#FFFFFF;fontSize=11;rotation=30;" parent="dTdVm22ynEOEwNfV1y40-28" vertex="1">
          <mxGeometry x="10" width="109.74" height="32.9" as="geometry" />
        </mxCell>
        <mxCell id="dTdVm22ynEOEwNfV1y40-29" value="" style="group;rotation=0;" parent="1" vertex="1" connectable="0">
          <mxGeometry x="170" y="280" width="120" height="60" as="geometry" />
        </mxCell>
        <mxCell id="dTdVm22ynEOEwNfV1y40-30" value="&lt;br&gt;&lt;div&gt;&lt;i&gt;&lt;/i&gt;&lt;/div&gt;" style="text;html=1;strokeColor=#314354;fillColor=#647687;align=left;verticalAlign=middle;whiteSpace=wrap;rounded=1;fontFamily=Courier New;fontStyle=1;fontColor=#ffffff;rotation=0;" parent="dTdVm22ynEOEwNfV1y40-29" vertex="1">
          <mxGeometry x="8.779999999999998" y="17.118541033434663" width="96.57999999999997" height="18.09896656534956" as="geometry" />
        </mxCell>
        <mxCell id="dTdVm22ynEOEwNfV1y40-31" value="&lt;font style=&quot;font-size: 12px;&quot;&gt;Internet&lt;/font&gt;" style="text;html=1;align=center;verticalAlign=middle;whiteSpace=wrap;rounded=0;fontFamily=Courier New;fontStyle=1;fontColor=#FFFFFF;fontSize=12;rotation=0;" parent="dTdVm22ynEOEwNfV1y40-29" vertex="1">
          <mxGeometry x="4.39" y="-3.83" width="111.22" height="60" as="geometry" />
        </mxCell>
        <mxCell id="dTdVm22ynEOEwNfV1y40-19" value="" style="group" parent="1" vertex="1" connectable="0">
          <mxGeometry x="308.76" y="610" width="87.18999999999994" height="45.59000000000003" as="geometry" />
        </mxCell>
        <mxCell id="dTdVm22ynEOEwNfV1y40-20" value="&lt;br&gt;&lt;div&gt;&lt;i&gt;&lt;/i&gt;&lt;/div&gt;" style="text;html=1;strokeColor=#314354;fillColor=#647687;align=left;verticalAlign=middle;whiteSpace=wrap;rounded=1;fontFamily=Courier New;fontStyle=1;fontColor=#ffffff;" parent="dTdVm22ynEOEwNfV1y40-19" vertex="1">
          <mxGeometry y="1.490000000000009" width="87.19" height="44.1" as="geometry" />
        </mxCell>
        <mxCell id="dTdVm22ynEOEwNfV1y40-21" value="Client" style="text;html=1;align=center;verticalAlign=middle;whiteSpace=wrap;rounded=0;fontFamily=Courier New;fontStyle=1;fontColor=#FFFFFF;" parent="dTdVm22ynEOEwNfV1y40-19" vertex="1">
          <mxGeometry x="13.590000000000146" width="60" height="30" as="geometry" />
        </mxCell>
        <mxCell id="dTdVm22ynEOEwNfV1y40-22" value="7.3.3.1" style="text;html=1;align=center;verticalAlign=middle;whiteSpace=wrap;rounded=0;fontFamily=Courier New;fontStyle=1;fontColor=#FFFFFF;" parent="dTdVm22ynEOEwNfV1y40-19" vertex="1">
          <mxGeometry x="13.590000000000146" y="15.589999999999975" width="60" height="30" as="geometry" />
        </mxCell>
        <mxCell id="3" value="" style="endArrow=classicThin;html=1;rounded=1;fontFamily=Courier New;jumpSize=12;strokeWidth=3;endFill=1;strokeColor=#EA6B66;edgeStyle=isometricEdgeStyle;startArrow=none;startFill=0;dashed=1;flowAnimation=1;" parent="1" edge="1">
          <mxGeometry width="50" height="50" relative="1" as="geometry">
            <mxPoint x="636" y="267.52" as="sourcePoint" />
            <mxPoint x="717" y="313" as="targetPoint" />
            <Array as="points">
              <mxPoint x="673.42" y="288.09000000000003" />
            </Array>
          </mxGeometry>
        </mxCell>
        <mxCell id="4" value="--endpoint 10.0.0.2:51820&lt;br&gt;&lt;span style=&quot;font-weight: normal;&quot;&gt;tells the new Server how to connect to an existing Server&lt;/span&gt;" style="text;html=1;strokeColor=#82b366;fillColor=#d5e8d4;align=center;verticalAlign=middle;whiteSpace=wrap;rounded=0;fontFamily=Courier New;fontStyle=1" parent="1" vertex="1">
          <mxGeometry x="820" y="221.6" width="234" height="59.4" as="geometry" />
        </mxCell>
      </root>
    </mxGraphModel>
  </diagram>
</mxfile>
